<svg id="SvgjsSvg1026" width="288" height="288" xmlns="http://www.w3.org/2000/svg" version="1.1" xmlns:xlink="http://www.w3.org/1999/xlink" xmlns:svgjs="http://svgjs.com/svgjs"><rect id="SvgjsRect1034" width="288" height="288" rx="20" ry="20" transform="matrix(0.7916,0,0,0.7916,30.009600000000006,30.009600000000006)" fill="#010710"></rect><defs id="SvgjsDefs1027"></defs><g id="SvgjsG1028" transform="matrix(0.4652,0,0,0.4652,77.01119693984985,77.0112020401001)"><svg xmlns="http://www.w3.org/2000/svg" viewBox="0 0 1792 1792" width="288" height="288"><path d="M1664 1344v128q0 26-19 45t-45 19H192q-26 0-45-19t-19-45v-128q0-26 19-45t45-19h1408q26 0 45 19t19 45zm0-512v128q0 26-19 45t-45 19H192q-26 0-45-19t-19-45V832q0-26 19-45t45-19h1408q26 0 45 19t19 45zm0-512v128q0 26-19 45t-45 19H192q-26 0-45-19t-19-45V320q0-26 19-45t45-19h1408q26 0 45 19t19 45z" fill="#ffffff" class="color000 svgShape"></path></svg></g></svg>