<svg xmlns="http://www.w3.org/2000/svg" width="25" height="25"><path style="text-indent:0;text-align:start;line-height:normal;text-transform:none;block-progression:tb;marker:none;-inkscape-font-specification:Sans" d="M12.5 0C5.602 0 0 5.602 0 12.5S5.602 25 12.5 25 25 19.398 25 12.5 19.398 0 12.5 0zm0 .969A11.519 11.519 0 0 1 24.031 12.5 11.519 11.519 0 0 1 12.5 24.031 11.519 11.519 0 0 1 .969 12.5 11.519 11.519 0 0 1 12.5.969zM7 7v5h5V7H7zm6 0v5h5V7h-5zM8 8h3v3H8V8zm-1 5v5h5v-5H7zm6 0v5h5v-5h-5zm-5 1h3v3H8v-3zm6 0h3v3h-3v-3z" color="#000" font-family="Sans" font-weight="400" overflow="visible"/></svg>